<?xml version="1.0" encoding="UTF-8" standalone="no"?>
<!DOCTYPE svg PUBLIC "-//W3C//DTD SVG 20010904//EN"
              "http://www.w3.org/TR/2001/REC-SVG-20010904/DTD/svg10.dtd">

<svg xmlns="http://www.w3.org/2000/svg"
     width="6.44444in" height="4.44444in"
     viewBox="0 0 580 400">
  <path id="选区"
        fill="none" stroke="black" stroke-width="1"
        d="M 336.00,173.00
           C 336.00,173.00 336.00,182.00 336.00,182.00
             336.00,182.00 329.00,182.00 329.00,182.00
             329.00,182.00 329.00,173.00 329.00,173.00
             329.00,173.00 336.00,173.00 336.00,173.00 Z
           M 383.00,173.00
           C 383.00,173.00 383.00,191.00 383.00,191.00
             389.07,185.42 394.85,183.94 396.84,194.00
             396.84,194.00 396.84,223.00 396.84,223.00
             396.84,223.00 391.00,223.00 391.00,223.00
             391.00,223.00 391.00,205.00 391.00,205.00
             390.96,202.12 390.65,195.29 386.10,196.05
             382.72,196.62 383.02,201.49 383.00,204.00
             383.00,204.00 383.00,223.00 383.00,223.00
             383.00,223.00 377.00,223.00 377.00,223.00
             377.00,223.00 377.00,173.00 377.00,173.00
             377.00,173.00 383.00,173.00 383.00,173.00 Z
           M 423.00,173.00
           C 423.00,173.00 423.00,223.00 423.00,223.00
             423.00,223.00 417.00,223.00 417.00,223.00
             417.00,223.00 417.00,219.00 417.00,219.00
             415.23,220.57 413.37,222.50 411.01,223.16
             406.43,224.42 403.98,219.62 402.94,216.00
             400.97,209.22 400.84,189.61 409.09,186.79
             411.64,185.92 414.56,187.25 417.00,188.00
             417.00,188.00 417.00,173.00 417.00,173.00
             417.00,173.00 423.00,173.00 423.00,173.00 Z
           M 161.00,175.00
           C 161.00,175.00 161.00,193.00 161.00,193.00
             161.00,193.00 173.00,193.00 173.00,193.00
             173.00,193.00 173.00,175.00 173.00,175.00
             173.00,175.00 179.00,175.00 179.00,175.00
             179.00,175.00 179.00,223.00 179.00,223.00
             179.00,223.00 173.00,223.00 173.00,223.00
             173.00,223.00 173.00,202.00 173.00,202.00
             173.00,202.00 161.00,202.00 161.00,202.00
             161.00,202.00 161.00,223.00 161.00,223.00
             161.00,223.00 155.00,223.00 155.00,223.00
             155.00,223.00 155.00,175.00 155.00,175.00
             155.00,175.00 161.00,175.00 161.00,175.00 Z
           M 316.98,175.74
           C 326.13,179.34 323.35,190.83 319.00,197.00
             327.00,201.23 327.37,215.80 319.81,220.99
             315.70,223.82 307.02,223.00 302.00,223.00
             302.00,223.00 302.00,175.00 302.00,175.00
             305.44,175.00 314.19,174.64 316.98,175.74 Z
           M 366.00,177.00
           C 366.00,177.00 366.00,187.00 366.00,187.00
             366.00,187.00 372.00,187.00 372.00,187.00
             372.00,187.00 372.00,195.00 372.00,195.00
             372.00,195.00 366.00,195.00 366.00,195.00
             366.00,199.00 365.01,211.81 367.60,214.40
             368.92,215.73 370.32,215.72 372.00,216.00
             371.98,217.82 372.16,220.92 370.98,222.40
             368.05,226.07 362.27,222.36 360.89,218.96
             359.46,215.43 360.00,199.78 360.00,195.00
             360.00,195.00 357.00,195.00 357.00,195.00
             357.00,195.00 357.00,187.00 357.00,187.00
             357.00,187.00 360.00,187.00 360.00,187.00
             360.00,187.00 360.00,177.00 360.00,177.00
             360.00,177.00 366.00,177.00 366.00,177.00 Z
           M 314.57,185.02
           C 312.89,183.86 309.97,184.03 308.00,184.00
             308.00,184.00 308.00,194.00 308.00,194.00
             320.06,193.84 316.75,186.53 314.57,185.02 Z
           M 188.02,188.51
           C 190.41,185.17 200.02,184.67 203.43,191.10
             205.98,195.91 205.00,216.44 205.00,223.00
             205.00,223.00 199.00,223.00 199.00,223.00
             199.00,223.00 199.00,219.00 199.00,219.00
             196.53,220.98 193.60,224.21 190.10,223.16
             183.72,221.23 184.00,208.61 187.01,204.11
             189.79,199.94 194.41,199.39 199.00,199.00
             195.80,192.77 192.75,193.85 187.00,196.00
             187.01,193.88 186.77,190.27 188.02,188.51 Z
           M 228.72,190.11
           C 231.69,195.07 231.79,210.57 229.89,216.00
             228.87,218.92 227.08,222.17 223.96,223.21
             221.34,224.08 218.50,222.77 216.00,222.00
             216.00,222.00 216.00,236.00 216.00,236.00
             216.00,236.00 210.00,236.00 210.00,236.00
             210.00,236.00 210.00,187.00 210.00,187.00
             210.00,187.00 216.00,187.00 216.00,187.00
             216.00,187.00 218.00,191.00 218.00,191.00
             220.98,186.38 225.32,184.41 228.72,190.11 Z
           M 255.72,190.11
           C 258.69,195.07 258.79,210.57 256.89,216.00
             255.87,218.92 254.08,222.17 250.96,223.21
             248.34,224.08 245.50,222.77 243.00,222.00
             243.00,222.00 243.00,236.00 243.00,236.00
             243.00,236.00 237.00,236.00 237.00,236.00
             237.00,236.00 237.00,187.00 237.00,187.00
             237.00,187.00 243.00,187.00 243.00,187.00
             243.00,187.00 245.00,191.00 245.00,191.00
             247.98,186.38 252.32,184.41 255.72,190.11 Z
           M 431.02,188.51
           C 433.41,185.17 443.02,184.67 446.43,191.10
             448.98,195.91 448.00,216.44 448.00,223.00
             448.00,223.00 442.00,223.00 442.00,223.00
             442.00,223.00 442.00,219.00 442.00,219.00
             439.53,220.98 436.60,224.21 433.10,223.16
             426.72,221.23 427.00,208.61 430.01,204.11
             432.79,199.94 437.41,199.39 442.00,199.00
             438.80,192.77 435.75,193.85 430.00,196.00
             430.01,193.88 429.77,190.27 431.02,188.51 Z
           M 266.27,187.99
           C 266.27,187.99 268.65,194.00 268.65,194.00
             268.65,194.00 272.00,209.00 272.00,209.00
             274.61,203.46 276.49,193.19 277.00,187.00
             277.00,187.00 283.00,187.00 283.00,187.00
             283.00,187.00 274.87,224.00 274.87,224.00
             272.15,234.93 273.26,235.77 266.00,236.00
             266.00,236.00 268.39,221.00 268.39,221.00
             268.39,221.00 261.00,187.00 261.00,187.00
             261.00,187.00 266.27,187.99 266.27,187.99 Z
           M 335.00,187.00
           C 335.00,187.00 335.00,223.00 335.00,223.00
             335.00,223.00 330.00,223.00 330.00,223.00
             330.00,223.00 330.00,187.00 330.00,187.00
             330.00,187.00 335.00,187.00 335.00,187.00 Z
           M 347.00,187.00
           C 347.00,187.00 347.00,192.00 347.00,192.00
             347.00,192.00 355.00,187.00 355.00,187.00
             355.00,187.00 355.00,196.00 355.00,196.00
             355.00,196.00 348.60,198.43 348.60,198.43
             348.60,198.43 347.00,207.00 347.00,207.00
             347.00,207.00 347.00,223.00 347.00,223.00
             347.00,223.00 341.00,223.00 341.00,223.00
             341.00,223.00 341.00,187.00 341.00,187.00
             341.00,187.00 347.00,187.00 347.00,187.00 Z
           M 457.27,187.99
           C 457.27,187.99 459.65,194.00 459.65,194.00
             459.65,194.00 463.00,209.00 463.00,209.00
             465.61,203.46 467.49,193.19 468.00,187.00
             468.00,187.00 474.00,187.00 474.00,187.00
             474.00,187.00 465.87,224.00 465.87,224.00
             463.15,234.93 464.26,235.77 457.00,236.00
             457.00,236.00 459.39,221.00 459.39,221.00
             459.39,221.00 452.00,187.00 452.00,187.00
             452.00,187.00 457.27,187.99 457.27,187.99 Z
           M 408.11,209.00
           C 408.45,212.06 410.06,215.66 413.87,214.34
             418.77,212.65 417.42,196.51 415.40,194.85
             413.94,193.98 412.34,194.64 412.09,194.85
             407.17,197.67 407.51,203.71 408.11,209.00 Z
           M 216.00,209.00
           C 216.06,212.04 216.34,216.87 220.91,215.34
             226.13,213.61 226.55,198.57 222.57,195.85
             221.06,195.08 220.54,195.55 219.13,195.85
             214.79,198.57 215.92,204.20 216.00,209.00 Z
           M 243.00,209.00
           C 243.06,212.04 243.34,216.87 247.91,215.34
             253.13,213.61 253.55,198.57 249.57,195.85
             248.06,195.08 247.54,195.55 246.13,195.85
             241.79,198.57 242.92,204.20 243.00,209.00 Z
           M 315.69,212.98
           C 318.67,210.99 318.67,205.01 315.69,203.02
             313.83,201.79 310.19,202.01 308.00,202.00
             308.00,202.00 308.00,214.00 308.00,214.00
             310.19,213.99 313.83,214.21 315.69,212.98 Z
           M 194.15,206.89
           C 185.41,210.85 197.08,221.99 198.93,210.98
             198.93,210.98 198.93,206.00 198.93,206.00
             197.37,206.15 195.67,206.20 194.15,206.89 Z
           M 437.15,206.89
           C 428.41,210.85 440.08,221.99 441.93,210.98
             441.93,210.98 441.93,206.00 441.93,206.00
             440.37,206.15 438.67,206.20 437.15,206.89 Z" />
</svg>
